<?xml version="1.0" encoding="UTF-8" standalone="no"?>
<!DOCTYPE svg PUBLIC "-//W3C//DTD SVG 1.1//EN"
 "http://www.w3.org/Graphics/SVG/1.1/DTD/svg11.dtd">
<!-- Generated by graphviz version 2.40.1 (20161225.0304)
 -->
<!-- Title: dependencies Pages: 1 -->
<svg width="504pt" height="211pt"
 viewBox="0.00 0.00 504.00 211.00" xmlns="http://www.w3.org/2000/svg" xmlns:xlink="http://www.w3.org/1999/xlink">
<g id="graph0" class="graph" transform="scale(1 1) rotate(0) translate(4 207)">
<title>dependencies</title>
<polygon fill="#ffffff" stroke="transparent" points="-4,4 -4,-207 500,-207 500,4 -4,4"/>
<text text-anchor="start" x="227.0091" y="-42.4" font-family="sans-serif" font-weight="bold" font-size="14.00" fill="#000000">Legend</text>
<polygon fill="#ffffb3" stroke="transparent" points="14,-10 14,-30 34,-30 34,-10 14,-10"/>
<text text-anchor="start" x="37.629" y="-15.4" font-family="sans-serif" font-size="14.00" fill="#000000"> &#160;Declarations</text>
<polygon fill="#8dd3c7" stroke="transparent" points="127,-10 127,-30 147,-30 147,-10 127,-10"/>
<text text-anchor="start" x="150.7251" y="-15.4" font-family="sans-serif" font-size="14.00" fill="#000000"> &#160;Module</text>
<polygon fill="#80b1d3" stroke="transparent" points="213,-10 213,-30 233,-30 233,-10 213,-10"/>
<text text-anchor="start" x="236.7812" y="-15.4" font-family="sans-serif" font-size="14.00" fill="#000000"> &#160;Bootstrap</text>
<polygon fill="#fdb462" stroke="transparent" points="310,-10 310,-30 330,-30 330,-10 310,-10"/>
<text text-anchor="start" x="333.6732" y="-15.4" font-family="sans-serif" font-size="14.00" fill="#000000"> &#160;Providers</text>
<polygon fill="#fb8072" stroke="transparent" points="406,-10 406,-30 426,-30 426,-10 406,-10"/>
<text text-anchor="start" x="429.7258" y="-15.4" font-family="sans-serif" font-size="14.00" fill="#000000"> &#160;Exports</text>
<g id="clust1" class="cluster">
<title>cluster_DataModule</title>
<polygon fill="none" stroke="#000000" stroke-dasharray="1,5" points="29.5,-70 29.5,-195 466.5,-195 466.5,-70 29.5,-70"/>
</g>
<g id="clust6" class="cluster">
<title>cluster_DataModule_providers</title>
<polygon fill="none" stroke="#000000" points="37.5,-78 37.5,-130 458.5,-130 458.5,-78 37.5,-78"/>
</g>
<!-- CryptoService -->
<g id="node1" class="node">
<title>CryptoService</title>
<ellipse fill="#fdb462" stroke="#000000" cx="383.5" cy="-104" rx="66.6325" ry="18"/>
<text text-anchor="middle" x="383.5" y="-99.8" font-family="Times,serif" font-size="14.00" fill="#000000">CryptoService</text>
</g>
<!-- DataModule -->
<g id="node4" class="node">
<title>DataModule</title>
<polygon fill="#8dd3c7" stroke="#000000" points="283.4762,-187 280.4762,-191 259.4762,-191 256.4762,-187 197.5238,-187 197.5238,-151 283.4762,-151 283.4762,-187"/>
<text text-anchor="middle" x="240.5" y="-164.8" font-family="Times,serif" font-size="14.00" fill="#000000">DataModule</text>
</g>
<!-- CryptoService&#45;&gt;DataModule -->
<g id="edge1" class="edge">
<title>CryptoService&#45;&gt;DataModule</title>
<path fill="none" stroke="#000000" d="M383.5,-122.1061C383.5,-141.3391 383.5,-169 383.5,-169 383.5,-169 293.7928,-169 293.7928,-169"/>
<polygon fill="#000000" stroke="#000000" points="293.7928,-165.5001 283.7928,-169 293.7927,-172.5001 293.7928,-165.5001"/>
</g>
<!-- DataService -->
<g id="node2" class="node">
<title>DataService</title>
<ellipse fill="#fdb462" stroke="#000000" cx="240.5" cy="-104" rx="58.4415" ry="18"/>
<text text-anchor="middle" x="240.5" y="-99.8" font-family="Times,serif" font-size="14.00" fill="#000000">DataService</text>
</g>
<!-- DataService&#45;&gt;DataModule -->
<g id="edge2" class="edge">
<title>DataService&#45;&gt;DataModule</title>
<path fill="none" stroke="#000000" d="M240.5,-122.1061C240.5,-122.1061 240.5,-140.991 240.5,-140.991"/>
<polygon fill="#000000" stroke="#000000" points="237.0001,-140.9909 240.5,-150.991 244.0001,-140.991 237.0001,-140.9909"/>
</g>
<!-- LogsService -->
<g id="node3" class="node">
<title>LogsService</title>
<ellipse fill="#fdb462" stroke="#000000" cx="104.5" cy="-104" rx="59.1083" ry="18"/>
<text text-anchor="middle" x="104.5" y="-99.8" font-family="Times,serif" font-size="14.00" fill="#000000">LogsService</text>
</g>
<!-- LogsService&#45;&gt;DataModule -->
<g id="edge3" class="edge">
<title>LogsService&#45;&gt;DataModule</title>
<path fill="none" stroke="#000000" d="M104.5,-122.1061C104.5,-141.3391 104.5,-169 104.5,-169 104.5,-169 187.4688,-169 187.4688,-169"/>
<polygon fill="#000000" stroke="#000000" points="187.4688,-172.5001 197.4688,-169 187.4687,-165.5001 187.4688,-172.5001"/>
</g>
</g>
</svg>
