<?xml version="1.0" encoding="UTF-8" standalone="no"?>
<!DOCTYPE svg PUBLIC "-//W3C//DTD SVG 1.1//EN"
 "http://www.w3.org/Graphics/SVG/1.1/DTD/svg11.dtd">
<!-- Generated by graphviz version 2.40.1 (20161225.0304)
 -->
<!-- Title: dependencies Pages: 1 -->
<svg width="522pt" height="211pt"
 viewBox="0.00 0.00 522.00 211.00" xmlns="http://www.w3.org/2000/svg" xmlns:xlink="http://www.w3.org/1999/xlink">
<g id="graph0" class="graph" transform="scale(1 1) rotate(0) translate(4 207)">
<title>dependencies</title>
<polygon fill="#ffffff" stroke="transparent" points="-4,4 -4,-207 518,-207 518,4 -4,4"/>
<text text-anchor="start" x="236.0091" y="-42.4" font-family="sans-serif" font-weight="bold" font-size="14.00" fill="#000000">Legend</text>
<polygon fill="#ffffb3" stroke="transparent" points="23,-10 23,-30 43,-30 43,-10 23,-10"/>
<text text-anchor="start" x="46.629" y="-15.4" font-family="sans-serif" font-size="14.00" fill="#000000"> &#160;Declarations</text>
<polygon fill="#8dd3c7" stroke="transparent" points="136,-10 136,-30 156,-30 156,-10 136,-10"/>
<text text-anchor="start" x="159.7251" y="-15.4" font-family="sans-serif" font-size="14.00" fill="#000000"> &#160;Module</text>
<polygon fill="#80b1d3" stroke="transparent" points="222,-10 222,-30 242,-30 242,-10 222,-10"/>
<text text-anchor="start" x="245.7812" y="-15.4" font-family="sans-serif" font-size="14.00" fill="#000000"> &#160;Bootstrap</text>
<polygon fill="#fdb462" stroke="transparent" points="319,-10 319,-30 339,-30 339,-10 319,-10"/>
<text text-anchor="start" x="342.6732" y="-15.4" font-family="sans-serif" font-size="14.00" fill="#000000"> &#160;Providers</text>
<polygon fill="#fb8072" stroke="transparent" points="415,-10 415,-30 435,-30 435,-10 415,-10"/>
<text text-anchor="start" x="438.7258" y="-15.4" font-family="sans-serif" font-size="14.00" fill="#000000"> &#160;Exports</text>
<g id="clust1" class="cluster">
<title>cluster_AppModule</title>
<polygon fill="none" stroke="#000000" stroke-dasharray="1,5" points="8,-70 8,-195 506,-195 506,-70 8,-70"/>
</g>
<g id="clust3" class="cluster">
<title>cluster_AppModule_imports</title>
<polygon fill="none" stroke="#000000" points="174,-78 174,-130 498,-130 498,-78 174,-78"/>
</g>
<g id="clust6" class="cluster">
<title>cluster_AppModule_providers</title>
<polygon fill="none" stroke="#000000" points="16,-78 16,-130 166,-130 166,-78 16,-78"/>
</g>
<!-- CryptoModule -->
<g id="node1" class="node">
<title>CryptoModule</title>
<polygon fill="#8dd3c7" stroke="#000000" points="490.4386,-122 487.4386,-126 466.4386,-126 463.4386,-122 391.5614,-122 391.5614,-86 490.4386,-86 490.4386,-122"/>
<text text-anchor="middle" x="441" y="-99.8" font-family="Times,serif" font-size="14.00" fill="#000000">CryptoModule</text>
</g>
<!-- AppModule -->
<g id="node4" class="node">
<title>AppModule</title>
<polygon fill="#8dd3c7" stroke="#000000" points="319.6571,-187 316.6571,-191 295.6571,-191 292.6571,-187 236.3429,-187 236.3429,-151 319.6571,-151 319.6571,-187"/>
<text text-anchor="middle" x="278" y="-164.8" font-family="Times,serif" font-size="14.00" fill="#000000">AppModule</text>
</g>
<!-- CryptoModule&#45;&gt;AppModule -->
<g id="edge1" class="edge">
<title>CryptoModule&#45;&gt;AppModule</title>
<path fill="none" stroke="#000000" d="M441,-122.1061C441,-141.3391 441,-169 441,-169 441,-169 329.9766,-169 329.9766,-169"/>
<polygon fill="#000000" stroke="#000000" points="329.9766,-165.5001 319.9766,-169 329.9765,-172.5001 329.9766,-165.5001"/>
</g>
<!-- DataModule -->
<g id="node2" class="node">
<title>DataModule</title>
<polygon fill="#8dd3c7" stroke="#000000" points="373.9762,-122 370.9762,-126 349.9762,-126 346.9762,-122 288.0238,-122 288.0238,-86 373.9762,-86 373.9762,-122"/>
<text text-anchor="middle" x="331" y="-99.8" font-family="Times,serif" font-size="14.00" fill="#000000">DataModule</text>
</g>
<!-- DataModule&#45;&gt;AppModule -->
<g id="edge2" class="edge">
<title>DataModule&#45;&gt;AppModule</title>
<path fill="none" stroke="#000000" d="M303.9201,-122.1061C303.9201,-122.1061 303.9201,-140.991 303.9201,-140.991"/>
<polygon fill="#000000" stroke="#000000" points="300.4201,-140.9909 303.9201,-150.991 307.4201,-140.991 300.4201,-140.9909"/>
</g>
<!-- LogsModule -->
<g id="node3" class="node">
<title>LogsModule</title>
<polygon fill="#8dd3c7" stroke="#000000" points="269.5482,-122 266.5482,-126 245.5482,-126 242.5482,-122 182.4518,-122 182.4518,-86 269.5482,-86 269.5482,-122"/>
<text text-anchor="middle" x="226" y="-99.8" font-family="Times,serif" font-size="14.00" fill="#000000">LogsModule</text>
</g>
<!-- LogsModule&#45;&gt;AppModule -->
<g id="edge3" class="edge">
<title>LogsModule&#45;&gt;AppModule</title>
<path fill="none" stroke="#000000" d="M252.9727,-122.1061C252.9727,-122.1061 252.9727,-140.991 252.9727,-140.991"/>
<polygon fill="#000000" stroke="#000000" points="249.4727,-140.9909 252.9727,-150.991 256.4727,-140.991 249.4727,-140.9909"/>
</g>
<!-- CryptoService -->
<g id="node5" class="node">
<title>CryptoService</title>
<ellipse fill="#fdb462" stroke="#000000" cx="91" cy="-104" rx="66.6325" ry="18"/>
<text text-anchor="middle" x="91" y="-99.8" font-family="Times,serif" font-size="14.00" fill="#000000">CryptoService</text>
</g>
<!-- CryptoService&#45;&gt;AppModule -->
<g id="edge4" class="edge">
<title>CryptoService&#45;&gt;AppModule</title>
<path fill="none" stroke="#000000" d="M91,-122.1061C91,-141.3391 91,-169 91,-169 91,-169 226.0335,-169 226.0335,-169"/>
<polygon fill="#000000" stroke="#000000" points="226.0336,-172.5001 236.0335,-169 226.0335,-165.5001 226.0336,-172.5001"/>
</g>
</g>
</svg>
